<svg width="50" height="50" viewBox="0 0 50 50" fill="none" xmlns="http://www.w3.org/2000/svg">
<circle cx="25" cy="25" r="25" fill="#CB3A1A"/>
<path d="M25.7858 23.2308C26.6337 23.6183 27.2445 24.3281 27.471 25.1733C27.7055 26.0487 27.5315 26.9688 26.9909 27.7284C26.8945 27.8513 26.7295 27.9602 26.5786 28.0006C26.3673 28.0572 26.1317 28.0233 25.9323 27.8826C25.6099 27.6455 25.5188 27.1846 25.778 26.824C26.0373 26.4633 26.1434 26.0143 26.0221 25.5615C25.9089 25.1389 25.5924 24.8031 25.1876 24.6204C24.7828 24.4377 24.6313 23.9931 24.7919 23.6265C24.9826 23.2518 25.4192 23.0702 25.7858 23.2308ZM27.0286 20.5037C28.6862 21.2566 29.8997 22.6461 30.3688 24.3968C30.8379 26.1476 30.4898 27.9879 29.4227 29.4385C29.296 29.5695 29.1612 29.6703 28.9801 29.7188C28.7688 29.7754 28.5635 29.7334 28.364 29.5927C28.0115 29.3637 27.9505 28.8947 28.1877 28.5724C28.9875 27.4522 29.2294 26.0609 28.8897 24.7931C28.5419 23.4952 27.6449 22.4415 26.3921 21.8713C26.0175 21.6805 25.8358 21.2439 26.0266 20.8692C26.1872 20.5027 26.6238 20.321 27.0286 20.5037ZM28.2714 17.7766C30.7386 18.8949 32.5548 20.9641 33.2665 23.6204C33.9702 26.2465 33.4481 29.0069 31.8625 31.1788C31.7439 31.34 31.6092 31.4408 31.4582 31.4813C31.2469 31.5379 31.0114 31.5039 30.8119 31.3633C30.4896 31.1261 30.3984 30.6653 30.6275 30.3127C31.9458 28.4713 32.3919 26.1518 31.8177 24.0086C31.2353 21.8353 29.6973 20.0798 27.6349 19.1442C27.2602 18.9534 27.1087 18.5087 27.2693 18.1422C27.4601 17.7675 27.8967 17.5858 28.2714 17.7766ZM21.7146 24.0952L20.0743 24.3729C19.9235 26.2251 20.4169 28.0663 21.4735 29.595L23.0329 29.0154C23.3267 28.9043 23.7072 28.9964 23.9089 29.2659L25.5844 31.5346C25.8243 31.8262 25.7785 32.259 25.5554 32.5129L23.8425 34.3307C23.6193 34.5846 23.2107 34.6294 22.9046 34.4526C17.6611 31.4253 15.8575 24.694 18.8848 19.4506C19.0616 19.1444 19.4378 18.9789 19.758 19.0872L22.1503 19.805C22.4705 19.9133 22.7265 20.2653 22.6646 20.6377L22.3479 23.4402C22.308 23.7744 22.0245 24.0445 21.7146 24.0952Z" fill="white"/>
</svg>
